<svg width="400" height="400" xmlns="http://www.w3.org/2000/svg" preserveAspectRatio="xMidYMid meet">
    <g>
        <title>background</title>
        <rect fill="#fff" id="canvas_background" height="602" width="802" y="-1" x="-1"/>
    </g>
    <g>
        <title>Layer 1</title>
            <rect stroke="null" id="svg_21" height="409.00001" width="414.99998" y="-1.00001" x="-10.49998" stroke-width="1.5" fill="#000000"/>
            <rect stroke="null" id="svg_1" height="388.00002" width="386.99999" y="5.99998" x="6.5" stroke-width="1.5" fill="#663399"/>
            <text stroke="null" xml:space="preserve" text-anchor="start" font-family="Junction, sans-serif" font-size="52" id="svg_2" y="79.2105" x="74.30863" stroke-width="0" fill="#ffcc00">WIU Radio</text>
            <ellipse stroke="null" ry="115.5" rx="124.5" id="svg_6" cy="229.95313" cx="200" stroke-opacity="null" stroke-width="1.5" fill="#ffcc00"/>
            <ellipse stroke="null" transform="rotate(-1.2511510848999023 200,233.45312499999972) " ry="101.45884" rx="106.06187" id="svg_7" cy="233.45313" cx="200" stroke-opacity="null" stroke-width="1.5" fill="#0a0800"/>
            <ellipse stroke="null" ry="83.5" rx="83.49999" id="svg_9" cy="232" cx="199.50001" stroke-opacity="null" stroke-width="1.5" fill="#ffcc00"/>
            <ellipse stroke="null" ry="58.5" rx="56" id="svg_10" cy="230.95312" cx="199.00001" stroke-opacity="null" stroke-width="1.5" fill="#000000"/>
            <path id="svg_11" d="m176.12673,248.04742l51.73177,0.02214l-1.67871,2.78159l-48.35454,-0.06643l-1.69853,-2.7373l0,0zm0.35551,-37.00139l51.04051,-0.06643l1.48125,2.85348l-54.02279,0.02214l1.50103,-2.8092zm-5.03707,18.5409l61.07513,-0.06643l-0.07895,2.85348l-60.95668,-0.04428l-0.0395,-2.74277zm61.12569,0.26466c0,18.89073 -13.71,34.25853 -30.56464,34.25853c-16.84736,0 -30.5548,-15.37058 -30.5548,-34.25853c0,-18.88804 13.70992,-34.25584 30.5548,-34.25584c16.85464,-0.00278 30.56464,15.3678 30.56464,34.25584zm-30.56224,-37.00139c-18.1922,0 -32.99628,16.59727 -32.99628,36.99861c0,20.40412 14.80408,37.00139 32.99628,37.00139c18.20211,0 33.00372,-16.59727 33.00372,-37.00139c0,-20.40134 -14.80161,-36.99861 -33.00372,-36.99861zm9.25968,37.00139c0,20.18632 -4.87817,34.25853 -9.25968,34.25853c-4.37656,0 -9.25465,-14.07221 -9.25465,-34.25853c0,-20.19188 4.87569,-34.25584 9.25465,-34.25584c4.37904,-0.00278 9.25968,14.06397 9.25968,34.25584zm-9.25968,-37.00139c-7.5999,0 -11.70109,19.06437 -11.70109,36.99861c0,17.93972 4.10118,37.00139 11.70109,37.00139c7.59998,0 11.7086,-19.06444 11.7086,-37.00139c-0.00248,-17.93424 -4.10862,-36.99861 -11.7086,-36.99861zm21.68613,37.00139c0,18.89073 -9.73172,34.25853 -21.68613,34.25853c-11.95193,0 -21.6787,-15.37058 -21.6787,-34.25853c0,-18.88804 9.72677,-34.25584 21.6787,-34.25584c11.95441,-0.00278 21.68613,15.3678 21.68613,34.25584zm-21.68613,-37.00139c-13.29933,0 -24.12514,16.59727 -24.12514,36.99861c0,20.40412 10.82581,37.00139 24.12514,37.00139c13.30429,0 24.12769,-16.59727 24.12769,-37.00139c0,-20.40134 -10.8234,-36.99861 -24.12769,-36.99861z" fill-opacity="null" stroke-opacity="null" stroke-width="1.5" stroke="null" fill="#ffcc00"/>
            <path stroke="null" transform="rotate(11.3038911819458 147.1174011230475,328.72900390624994) " id="svg_17" d="m106.40764,387.68037c4.92736,-0.07154 9.85471,-0.1431 14.78206,-0.21464c0.03244,-11.31689 0.06488,-22.63378 0.09732,-33.95066c4.90381,0 9.80763,0 14.71145,0c0,-11.38631 0,-22.77263 0,-34.15895c5.0294,0 10.05879,0 15.08818,0c0,-11.10859 0,-22.21719 0,-33.32579c4.9673,0 9.93461,0 14.90191,0c0,-11.10859 0,-22.21719 0,-33.3258c7.38885,0 14.77772,0 22.16658,0c0,5.55431 0,11.10861 0,16.66291c-4.90522,0 -9.81042,0 -14.71564,0c0,11.24746 0,22.49492 0,33.74237c-4.9673,0 -9.93459,0 -14.90191,0c0,11.24746 0,22.49492 0,33.74237c-4.9673,0 -9.93459,0 -14.90189,0c0,11.24747 0,22.49492 0,33.74236c-5.0294,0 -10.0588,0 -15.08818,0c0,11.38631 0,22.77264 0,34.15894c-7.45096,0 -14.90191,0 -22.35287,0c0.33217,-5.51958 -0.56626,-11.74351 0.21298,-17.0731l0,-0.00001z" stroke-opacity="null" stroke-width="1.5" fill="#96917c"/>
            <path stroke="null" transform="rotate(-64.77295684814453 261.1174011230468,312.72900390625) " id="svg_18" d="m215.60989,359.62731c5.50806,-0.05691 11.01611,-0.11384 16.52417,-0.17076c0.03626,-9.00307 0.07254,-18.00613 0.1088,-27.00919c5.48173,0 10.96349,0 16.44522,0c0,-9.05829 0,-18.11659 0,-27.17489c5.62213,0 11.24425,0 16.86636,0c0,-8.83735 0,-17.67472 0,-26.51208c5.55271,0 11.10543,0 16.65814,0c0,-8.83735 0,-17.67472 0,-26.5121c8.25966,0 16.51931,0 24.77898,0c0,4.41869 0,8.83738 0,13.25605c-5.48331,0 -10.9666,0 -16.44992,0c0,8.94783 0,17.89566 0,26.84349c-5.55271,0 -11.10541,0 -16.65814,0c0,8.94783 0,17.89566 0,26.84349c-5.55271,0 -11.10542,0 -16.65812,0c0,8.94783 0,17.89566 0,26.84348c-5.62213,0 -11.24426,0 -16.86636,0c0,9.05829 0,18.1166 0,27.17489c-8.32908,0 -16.65814,0 -24.98722,0c0.37132,-4.39106 -0.633,-9.34246 0.23808,-13.58238l0,-0.00001z" stroke-opacity="null" stroke-width="1.5" fill="#96917c"/>
            <path stroke="null" transform="rotate(82.09761810302734 109.6174087524414,209.72900390624997) " id="svg_19" d="m67.80111,257.9917c5.06129,-0.05857 10.12257,-0.11715 15.18385,-0.17572c0.03332,-9.26499 0.06665,-18.52997 0.09998,-27.79495c5.03709,0 10.07421,0 15.11131,0c0,-9.32182 0,-18.64365 0,-27.96547c5.1661,0 10.3322,0 15.49829,0c0,-9.09445 0,-18.18892 0,-27.28338c5.10232,0 10.20464,0 15.30696,0c0,-9.09445 0,-18.18892 0,-27.28339c7.5897,0 15.1794,0 22.7691,0c0,4.54724 0,9.09448 0,13.6417c-5.03855,0 -10.07708,0 -15.11563,0c0,9.20814 0,18.41629 0,27.62443c-5.10232,0 -10.20462,0 -15.30696,0c0,9.20814 0,18.41629 0,27.62443c-5.10232,0 -10.20463,0 -15.30694,0c0,9.20814 0,18.41628 0,27.62442c-5.1661,0 -10.33221,0 -15.49829,0c0,9.32182 0,18.64366 0,27.96547c-7.65349,0 -15.30696,0 -22.96045,0c0.3412,-4.51881 -0.58165,-9.61425 0.21877,-13.97752l0,-0.00001z" stroke-opacity="null" stroke-width="1.5" fill="#96917c"/>
            <path stroke="null" transform="rotate(22.67928695678711 262.61740112304693,158.7289886474609) " id="svg_20" d="m231.27278,202.01512c3.79384,-0.05253 7.58767,-0.10507 11.3815,-0.1576c0.02498,-8.30963 0.04996,-16.61927 0.07494,-24.9289c3.7757,0 7.55142,0 11.32713,0c0,-8.36061 0,-16.72122 0,-25.08184c3.8724,0 7.7448,0 11.6172,0c0,-8.15669 0,-16.31338 0,-24.47007c3.82459,0 7.64919,0 11.47378,0c0,-8.15669 0,-16.31338 0,-24.47009c5.68908,0 11.37816,0 17.06724,0c0,4.07835 0,8.15671 0,12.23505c-3.77679,0 -7.55357,0 -11.33036,0c0,8.25865 0,16.51731 0,24.77595c-3.82459,0 -7.64917,0 -11.47378,0c0,8.25865 0,16.51731 0,24.77596c-3.82459,0 -7.64918,0 -11.47376,0c0,8.25865 0,16.5173 0,24.77595c-3.8724,0 -7.74481,0 -11.6172,0c0,8.36061 0,16.72123 0,25.08183c-5.73689,0 -11.47378,0 -17.21067,0c0.25576,-4.05285 -0.43599,-8.62289 0.16398,-12.53624l0,-0.00001z" stroke-opacity="null" stroke-width="1.5" fill="#96917c"/>
    </g>
</svg>